<?xml version="1.0" encoding="utf-8"?><svg version="1.1" id="Layer_1" xmlns="http://www.w3.org/2000/svg" xmlns:xlink="http://www.w3.org/1999/xlink" x="0px" y="0px" viewBox="0 0 122.88 102.81" style="enable-background:new 0 0 122.88 102.81" xml:space="preserve"><g><path d="M71.61,55.51c-0.1,0.02-0.49,0.02-0.66,0.02H58.37v2.93h12.8c0.1,0,0.85,0,1-0.02c2.61-0.24,3.8-2.41,3.8-4.32 c0-1.95-1.24-4.05-3.61-4.27c-0.46-0.05-0.85-0.05-1.02-0.05h-8.36c-0.37,0-0.78-0.02-0.93-0.07c-0.66-0.17-0.9-0.76-0.9-1.24 c0-0.44,0.24-1.02,0.93-1.22c0.2-0.05,0.42-0.07,0.88-0.07h12.07v-2.88H62.76c-0.51,0-0.9,0.02-1.22,0.07 c-2.1,0.29-3.56,1.98-3.56,4.12c0,1.76,1.1,3.8,3.51,4.15c0.44,0.05,1.05,0.05,1.32,0.05h8.14c0.15,0,0.51,0,0.58,0.02 c0.93,0.12,1.24,0.8,1.24,1.42C72.78,54.73,72.41,55.37,71.61,55.51L71.61,55.51z"/><path d="M47.76,55.51c-0.1,0.02-0.49,0.02-0.63,0.02h-12.6v2.93h12.8c0.1,0,0.85,0,1-0.02c2.61-0.24,3.8-2.41,3.8-4.32 c0-1.95-1.24-4.05-3.61-4.27c-0.46-0.05-0.85-0.05-1.02-0.05h-8.36c-0.37,0-0.78-0.02-0.93-0.07c-0.66-0.17-0.9-0.76-0.9-1.24 c0-0.44,0.24-1.02,0.93-1.22c0.19-0.05,0.41-0.07,0.88-0.07h12.07v-2.88H38.91c-0.51,0-0.9,0.02-1.22,0.07 c-2.1,0.29-3.56,1.98-3.56,4.12c0,1.76,1.1,3.8,3.51,4.15c0.44,0.05,1.05,0.05,1.32,0.05h8.14c0.15,0,0.51,0,0.58,0.02 c0.93,0.12,1.24,0.8,1.24,1.42C48.93,54.73,48.59,55.37,47.76,55.51L47.76,55.51z"/><polygon points="24.8,58.54 27.96,58.54 27.96,44.23 24.8,44.23 24.8,58.54"/><polygon points="17.8,58.54 17.8,44.23 14.63,44.23 14.63,54.91 4.07,44.23 0,44.23 0,58.54 3.17,58.54 3.17,47.81 13.8,58.54 17.8,58.54"/><polygon points="119.73,44.23 119.73,54.91 109.18,44.23 105.11,44.23 105.11,58.54 108.28,58.54 108.28,47.81 118.88,58.54 122.88,58.54 122.88,44.23 119.73,44.23"/><path d="M88.6,44.23l-8.92,14.31h3.85l1.58-2.56h10.41l1.58,2.56h3.83l-8.92-14.31H88.6L88.6,44.23z M93.89,53.27h-7.14l3.58-5.75 L93.89,53.27L93.89,53.27z"/><path d="M17.63,36.11C24.02,17.46,41.62,4.92,61.46,4.92s37.47,12.53,43.84,31.18l0.05,0.15h13.97v-1.68l-5.8-0.68 c-3.58-0.41-4.34-2-5.31-4l-0.24-0.49C99.57,11.56,81.31,0,61.46,0C41.59,0,23.36,11.56,14.97,29.45l-0.24,0.49 c-0.98,2-1.73,3.58-5.31,4l-5.8,0.68v1.68h13.95L17.63,36.11L17.63,36.11z"/><path d="M105.35,66.54l-0.05,0.15c-6.39,18.65-23.99,31.16-43.84,31.16l0,0c-19.85,0-37.47-12.53-43.84-31.18l-0.05-0.15H3.63v1.68 l5.8,0.68c3.58,0.41,4.34,2,5.31,4l0.24,0.49c8.39,17.9,26.65,29.45,46.49,29.45l0,0c19.85,0,38.11-11.56,46.49-29.43l0.24-0.49 c0.97-2,1.73-3.58,5.31-4l5.8-0.68v-1.68H105.35L105.35,66.54z"/></g></svg>